<svg width="32" height="32" viewBox="0 0 32 32" fill="none" xmlns="http://www.w3.org/2000/svg">
  <g transform="translate(2, 2) scale(0.85)">
    <path d="M24.91 7.3C24.91 4.99 23.04 3.12 20.73 3.12C18.42 3.12 16.55 4.99 16.55 7.3C16.55 9.61 18.42 11.48 20.73 11.48C23.04 11.48 24.91 9.61 24.91 7.3ZM28.03 7.3C28.03 11.33 24.76 14.6 20.73 14.6C16.7 14.6 13.43 11.33 13.43 7.3C13.43 3.27 16.7 0 20.73 0C24.76 0 28.03 3.27 28.03 7.3Z" fill="#050505"/>
    <path d="M14 0C14.29 0 14.58 0.01 14.86 0.03C14.66 0.21 14.46 0.41 14.27 0.61C12.7 2.12 11.56 4.09 11.22 6.34C7.41 7.29 4.55 10.66 4.55 14.64C4.55 19.11 8.2 22.76 12.67 22.76C16.65 22.76 20.03 19.9 20.98 16.09C23.23 15.74 25.2 14.6 26.71 13.02C26.91 12.83 27.1 12.63 27.28 12.44C27.3 12.72 27.32 13.01 27.32 13.3C27.32 21.34 20.88 27.78 12.84 27.78C4.8 27.78 -1.64 21.34 -1.64 13.3C-1.64 5.26 4.8 -1.18 12.84 -1.18C13.23 -1.18 13.61 -1.15 14 -1.1V0Z" fill="#050505"/>
  </g>
</svg>
